<?xml version="1.0" standalone="no"?>
<!DOCTYPE svg PUBLIC "-//W3C//DTD SVG 20010904//EN"
 "http://www.w3.org/TR/2001/REC-SVG-20010904/DTD/svg10.dtd">
<svg version="1.0" xmlns="http://www.w3.org/2000/svg"
 width="426.000000pt" height="319.000000pt" viewBox="0 0 426.000000 319.000000"
 preserveAspectRatio="xMidYMid meet">

<g transform="translate(0.000000,319.000000) scale(0.100000,-0.100000)"
fill="#000000" stroke="none">
<path d="M2730 2102 c19 -9 127 -61 240 -114 113 -53 206 -101 207 -105 2 -5
-19 -26 -47 -47 -28 -21 -49 -40 -47 -42 4 -4 388 84 394 90 1 1 -106 35 -240
75 -133 39 -307 92 -387 116 -80 25 -147 44 -150 44 -3 0 11 -8 30 -17z"/>
<path d="M583 1865 c-81 -22 -131 -52 -190 -111 -125 -125 -156 -319 -77 -476
39 -76 117 -153 193 -191 62 -30 72 -32 176 -32 103 0 114 2 177 32 64 30 168
119 168 143 0 6 -23 10 -54 10 -43 0 -61 -5 -83 -24 -64 -53 -113 -70 -203
-70 -72 0 -93 4 -135 26 -67 35 -122 92 -154 158 -35 74 -36 181 -3 256 29 64
102 136 167 166 97 44 262 22 321 -43 13 -15 31 -19 81 -19 34 0 63 4 63 9 0
20 -115 115 -173 142 -79 37 -194 47 -274 24z"/>
<path d="M2830 1785 c0 -88 -1 -95 -20 -95 -17 0 -20 -7 -20 -45 0 -38 3 -45
20 -45 19 0 20 -7 20 -202 0 -112 5 -220 10 -240 6 -20 24 -51 40 -67 54 -53
173 -62 234 -18 17 12 17 17 5 51 -10 27 -17 35 -29 29 -8 -3 -35 -8 -60 -11
-37 -3 -49 0 -65 18 -18 20 -20 39 -23 231 l-3 209 90 0 91 0 0 45 0 45 -90 0
-90 0 0 95 0 95 -55 0 -55 0 0 -95z"/>
<path d="M1067 1683 c-4 -3 -7 -147 -7 -320 l0 -313 54 0 54 0 4 193 c3 184 4
195 29 242 29 58 79 91 152 101 l47 7 0 48 c0 46 -2 49 -26 49 -55 0 -115 -23
-159 -62 l-45 -40 0 51 0 51 -48 0 c-27 0 -52 -3 -55 -7z"/>
<path d="M1598 1674 c-64 -19 -149 -98 -179 -166 -33 -75 -33 -201 0 -275 30
-69 101 -134 177 -163 117 -45 270 -25 352 45 l35 31 -29 33 -30 33 -53 -34
c-49 -30 -61 -33 -130 -33 -62 0 -86 5 -126 26 -49 25 -93 80 -110 137 l-6 22
262 0 262 0 -5 73 c-8 125 -87 234 -195 271 -57 20 -162 20 -225 0z m210 -100
c53 -27 93 -76 107 -136 l7 -28 -211 0 -211 0 6 28 c33 135 175 199 302 136z"/>
<path d="M2300 1681 c-89 -27 -164 -94 -204 -181 -53 -114 -27 -261 62 -353
56 -58 124 -89 207 -95 86 -5 138 8 204 53 l51 34 0 -45 0 -44 50 0 50 0 0
320 0 320 -50 0 -50 0 0 -46 0 -45 -34 26 c-73 56 -203 81 -286 56z m198 -110
c115 -59 153 -217 79 -328 -64 -94 -180 -127 -282 -79 -87 40 -135 115 -135
208 0 92 63 181 151 215 46 17 137 10 187 -16z"/>
<path d="M3180 1370 l0 -320 55 0 55 0 0 320 0 320 -55 0 -55 0 0 -320z"/>
<path d="M3557 1675 c-129 -48 -210 -165 -211 -305 -1 -176 125 -309 301 -318
138 -8 245 54 305 175 29 58 33 78 33 143 0 65 -4 85 -33 143 -37 75 -104 134
-181 162 -53 18 -163 18 -214 0z m176 -86 c49 -13 115 -73 138 -124 24 -52 24
-138 0 -191 -49 -108 -191 -163 -296 -115 -88 39 -135 114 -135 210 0 76 16
115 67 164 64 61 141 80 226 56z"/>
</g>
</svg>
